<svg width="104" height="104" viewBox="0 0 104 104" fill="none" xmlns="http://www.w3.org/2000/svg">
<path d="M64.1333 75.3333C64.1333 86.6349 57.85 91 51.5667 91C45.2833 91 39 86.6349 39 75.3333C39 64.0318 46.8542 58.4917 45.2833 50.2667C53.5302 50.2667 64.1333 64.0318 64.1333 75.3333Z" stroke="#F9F7F2" stroke-width="7" stroke-linecap="round" stroke-linejoin="round"/>
<path d="M22.75 65C22.75 46.1094 47.9375 31.4844 42.25 9.75C55.6562 9.75 81.25 29.25 81.25 65C81.25 72.7576 78.1683 80.1974 72.6829 85.6829C67.1974 91.1683 59.7576 94.25 52 94.25C44.2424 94.25 36.8026 91.1683 31.3171 85.6829C25.8317 80.1974 22.75 72.7576 22.75 65V65Z" stroke="#FEDC97" stroke-width="7" stroke-linecap="round" stroke-linejoin="round"/>
</svg>
